<?xml version="1.0" encoding="UTF-8"?>
<svg id="Layer_2" data-name="Layer 2" xmlns="http://www.w3.org/2000/svg" viewBox="0 0 185.66 121.48">
  <defs>
    <style>
      .cls-1 {
        fill: #dac9fa;
      }

      .cls-2 {
        fill: #241147;
      }
    </style>
  </defs>
  <g id="Layer_2-2" data-name="Layer 2">
    <g>
      <path class="cls-2" d="M23.48,58.07L171.32,24.63l14.34,63.41L37.82,121.48l-14.34-63.41Z"/>
      <path class="cls-1" d="M64.46,112.31l-6.58,1.49-7.74-34.23,6.99-1.58,3.2,14.16c.46-1.19,1.31-2.24,2.53-3.15,1.25-.95,2.69-1.61,4.32-1.98,2.12-.48,4.07-.38,5.84.3,1.81.67,3.34,1.84,4.61,3.49,1.26,1.65,2.18,3.72,2.74,6.21.53,2.33.52,4.49-.01,6.49-.51,1.96-1.49,3.61-2.93,4.96-1.42,1.34-3.2,2.25-5.35,2.74-1.57.36-3.08.36-4.53.02-1.42-.38-2.55-1.01-3.39-1.91l.29,2.99ZM62.31,100.72c.25,1.12.71,2.07,1.36,2.84.68.74,1.48,1.26,2.4,1.56.95.26,1.97.27,3.06.02,1.12-.25,2.02-.71,2.7-1.37.71-.67,1.18-1.47,1.41-2.42.26-.95.27-1.99.01-3.11-.25-1.12-.7-2.05-1.35-2.8-.62-.75-1.39-1.28-2.31-1.58-.9-.31-1.9-.33-3.02-.08-1.09.25-2,.71-2.74,1.38-.71.64-1.22,1.44-1.51,2.39-.26.95-.26,2,0,3.15Z"/>
      <path class="cls-1" d="M83.11,96.11c-.54-2.39-.48-4.6.17-6.62.68-2.06,1.84-3.81,3.49-5.23,1.68-1.43,3.73-2.42,6.15-2.97,2.42-.55,4.68-.53,6.79.04,2.1.57,3.89,1.65,5.36,3.23,1.49,1.54,2.51,3.5,3.05,5.9.54,2.39.47,4.6-.22,6.64-.66,2.03-1.81,3.75-3.46,5.17-1.65,1.42-3.69,2.41-6.11,2.96-2.42.55-4.7.54-6.83-.03-2.1-.57-3.9-1.63-5.39-3.17-1.46-1.55-2.47-3.51-3.01-5.91ZM90.14,94.47c.26,1.15.72,2.11,1.37,2.89.68.74,1.48,1.26,2.4,1.56.92.27,1.92.28,3.01.03,1.09-.25,1.99-.69,2.71-1.33.71-.67,1.19-1.48,1.45-2.43.26-.98.25-2.05,0-3.2-.26-1.15-.71-2.1-1.36-2.84-.65-.74-1.43-1.25-2.35-1.52-.93-.3-1.93-.33-3.02-.08-1.09.25-1.99.7-2.7,1.37-.71.64-1.22,1.44-1.51,2.39-.26.95-.26,2,0,3.15Z"/>
      <path class="cls-1" d="M121.75,99.97c-2.39.54-4.44.32-6.16-.66-1.69-1.02-2.79-2.63-3.29-4.84-.47-2.09-.14-3.91,1.01-5.48,1.17-1.57,3.1-2.77,5.77-3.6l6.24-1.94-.08-.36c-.17-.76-.46-1.34-.88-1.76-.42-.45-.94-.73-1.57-.84-.61-.15-1.33-.13-2.18.06-1.48.34-2.56.86-3.22,1.59-.63.72-.83,1.59-.6,2.62l-5.81,1.31c-.39-1.73-.29-3.32.3-4.79.59-1.47,1.61-2.73,3.06-3.79,1.48-1.07,3.29-1.84,5.44-2.33,2.21-.5,4.16-.53,5.85-.08,1.72.44,3.15,1.32,4.28,2.66,1.16,1.33,1.99,3.08,2.48,5.26l3,13.26-6.17,1.4-1.13-2.89c-.13,1.11-.8,2.17-2,3.17-1.18.97-2.62,1.64-4.31,2.03ZM123.03,94.24c1.33-.3,2.35-.87,3.05-1.69.7-.86.9-1.94.6-3.24l-.28-1.23-3.47,1.12c-1.49.46-2.5.96-3.05,1.5-.52.5-.7,1.11-.54,1.84.19.82.58,1.36,1.18,1.64.6.28,1.43.3,2.49.06Z"/>
      <path class="cls-1" d="M150.87,68.9l1.49,6.58-2.23.5c-2,.45-3.46,1.29-4.39,2.52-.9,1.22-1.1,2.95-.59,5.19l2.23,9.85-6.99,1.58-5.12-22.65,6.58-1.49,1.64,4.73-.64.14c-.04-1.58.36-2.98,1.2-4.18.86-1.25,2.22-2.08,4.07-2.49.42-.1.85-.16,1.29-.2.46-.07.95-.1,1.46-.09Z"/>
      <path class="cls-1" d="M168.54,89.39c-2.18.49-4.18.44-6-.17-1.82-.61-3.39-1.68-4.69-3.23-1.28-1.59-2.19-3.58-2.73-5.97-.55-2.42-.57-4.64-.07-6.66.49-2.05,1.45-3.78,2.88-5.19,1.46-1.41,3.34-2.38,5.64-2.9,1.42-.32,2.8-.36,4.12-.12,1.36.23,2.46.7,3.32,1.4l-3.08-13.62,6.99-1.58,7.74,34.23-6.58,1.49-1.02-2.82c-.37,1.17-1.15,2.23-2.33,3.2-1.16.93-2.55,1.58-4.19,1.95ZM168.77,82.6c1.09-.25,1.99-.69,2.71-1.33.74-.68,1.24-1.49,1.5-2.44.29-.99.3-2.04.05-3.16-.26-1.15-.73-2.09-1.4-2.83-.65-.74-1.44-1.25-2.39-1.51-.93-.3-1.93-.33-3.02-.08-1.09.25-1.99.7-2.7,1.37-.71.67-1.19,1.48-1.46,2.43-.23.94-.22,1.97.03,3.09.25,1.12.69,2.06,1.3,2.81.65.74,1.43,1.27,2.36,1.57.93.3,1.93.33,3.02.08Z"/>
      <path class="cls-2" d="M0,1.08L151.99,0l.46,65.01L.46,66.09,0,1.08Z"/>
      <path class="cls-1" d="M19.03,36.99c-.01-2.08.52-3.91,1.59-5.5,1.07-1.62,2.56-2.89,4.44-3.8,1.92-.94,4.1-1.43,6.55-1.44,2.48-.02,4.63.4,6.43,1.26,1.81.86,3.2,2.07,4.17,3.65,1,1.58,1.51,3.45,1.53,5.62l-7.49.05c0-1.21-.43-2.15-1.28-2.83-.84-.71-1.98-1.06-3.41-1.05-1.52.01-2.74.35-3.67,1-.9.66-1.34,1.56-1.33,2.71,0,1.06.29,1.86.85,2.41.56.55,1.45.95,2.66,1.19l5.17,1.03c3.08.6,5.36,1.67,6.87,3.21,1.5,1.51,2.26,3.63,2.28,6.36.02,2.2-.51,4.15-1.59,5.83-1.07,1.65-2.6,2.94-4.58,3.85-1.95.91-4.24,1.38-6.88,1.4-2.54.02-4.78-.4-6.71-1.26-1.9-.86-3.38-2.07-4.45-3.65-1.04-1.61-1.56-3.48-1.58-5.62l7.49-.05c0,1.24.47,2.2,1.37,2.88.9.68,2.19,1.01,3.87,1,1.71-.01,3.05-.33,4.04-.96.99-.66,1.48-1.53,1.47-2.62,0-.96-.26-1.7-.76-2.23-.47-.52-1.28-.89-2.43-1.1l-5.27-1.03c-3.08-.6-5.41-1.76-7.01-3.49-1.56-1.73-2.36-4-2.38-6.83Z"/>
      <path class="cls-1" d="M63.88,37.84l7.17-.05.17,23.27-6.75.05-.48-2.6c-.71.97-1.73,1.75-3.06,2.35-1.3.6-2.65.9-4.04.91-2.64.02-4.74-.79-6.3-2.42-1.53-1.66-2.31-3.92-2.33-6.78l-.1-14.62,7.17-.05.09,12.01c.01,1.89.36,3.29,1.05,4.18.69.86,1.76,1.29,3.22,1.28,1.55-.01,2.65-.44,3.3-1.28.68-.87,1.01-2.26.99-4.15l-.09-12.1Z"/>
      <path class="cls-1" d="M76.67,72.19l-.24-34.44,6.75-.05.39,2.84c.64-1.09,1.65-1.97,3.01-2.63s2.86-1,4.51-1.01c2.17-.02,4.08.45,5.73,1.4,1.65.95,2.95,2.32,3.89,4.12.94,1.76,1.42,3.9,1.44,6.41.02,2.45-.4,4.64-1.26,6.57-.82,1.9-2.06,3.4-3.69,4.49-1.61,1.1-3.57,1.65-5.9,1.67-1.61.01-3.1-.26-4.47-.81s-2.4-1.26-3.09-2.12l.1,13.5-7.17.05ZM83.73,49.33c0,1.15.25,2.17.72,3.07.5.87,1.17,1.54,2.02,2.03.87.46,1.87.69,2.98.68,1.15,0,2.12-.26,2.93-.77.83-.5,1.47-1.19,1.89-2.06.46-.87.68-1.88.68-3.03,0-1.15-.25-2.15-.72-3.02-.44-.87-1.08-1.54-1.92-2.03-.81-.49-1.79-.73-2.94-.72-1.12,0-2.11.26-2.97.77-.83.47-1.5,1.14-1.99,2.02-.46.87-.68,1.9-.68,3.08Z"/>
      <path class="cls-1" d="M117.17,61.34c-2.33.02-4.41-.5-6.25-1.54-1.81-1.04-3.24-2.47-4.31-4.3-1.04-1.85-1.56-3.98-1.58-6.37-.02-2.42.46-4.55,1.44-6.39,1.01-1.87,2.41-3.34,4.2-4.41,1.79-1.07,3.85-1.61,6.18-1.63,2.45-.02,4.56.48,6.34,1.49,1.77.98,3.15,2.4,4.13,4.25.97,1.82,1.47,4.01,1.49,6.55v1.82s-20,.24-20,.24l.06-4.42,12.8-.09c0-1.24-.43-2.22-1.28-2.92-.84-.74-1.99-1.1-3.45-1.09-1.21,0-2.2.25-2.97.72-.74.47-1.29,1.2-1.66,2.2-.37.96-.54,2.21-.53,3.73.01,2.17.46,3.78,1.34,4.83.91,1.02,2.29,1.52,4.15,1.51,1.37,0,2.5-.25,3.39-.72.9-.47,1.47-1.13,1.71-1.97l6.56-.05c-.38,2.58-1.64,4.65-3.77,6.22-2.13,1.54-4.79,2.31-7.99,2.34Z"/>
      <path class="cls-1" d="M148.98,37.23l.05,6.75-2.28.02c-2.05.01-3.66.52-4.83,1.52-1.14,1-1.7,2.65-1.69,4.95l.07,10.1-7.17.05-.17-23.23,6.75-.05.59,4.98h-.65c.3-1.55.99-2.83,2.07-3.83,1.11-1.03,2.61-1.55,4.5-1.57.43,0,.87.02,1.3.08.46.03.95.1,1.44.22Z"/>
    </g>
  </g>
</svg>